<svg width="41" height="80" viewBox="0 0 41 80" fill="none" xmlns="http://www.w3.org/2000/svg">
<path d="M-8.28968 47.9845C-10.5168 47.9845 -12.3052 46.1935 -12.3052 44.0155C-12.3052 41.791 -10.5142 40 -8.28968 40C-6.09613 40 -4.32065 41.791 -4.32065 44.0155C-4.32065 46.209 -6.11161 47.9845 -8.28968 47.9845ZM40.5 40C40.5 62.0981 22.5955 80 0.499999 80C-21.5955 80 -39.5 62.0955 -39.5 40C-39.5 17.9019 -21.5955 0 0.499999 0C22.5955 0 40.5 17.9045 40.5 40ZM19.1606 33.3548C17.6458 33.3548 16.3065 33.9845 15.3206 34.9677C11.7077 32.4671 6.83806 30.8542 1.43419 30.6761L4.23935 18.0465L13.1761 20.0619C13.1761 22.2555 14.9671 24.031 17.1426 24.031C19.3697 24.031 21.1581 22.209 21.1581 20.0155C21.1581 17.8219 19.3671 16 17.1426 16C15.5787 16 14.2394 16.9368 13.5787 18.2271L3.70774 16.0335C3.22258 15.9045 2.72452 16.2606 2.59548 16.7432L-0.485808 30.6787C-5.84065 30.9058 -10.6639 32.5006 -14.2768 35.0013C-15.26 33.969 -16.6484 33.3574 -18.1632 33.3574C-23.7916 33.3574 -25.6316 40.9213 -20.4858 43.4864C-20.6639 44.2942 -20.7594 45.1303 -20.7594 45.9871C-20.7594 54.4697 -11.211 61.3419 0.530964 61.3419C12.3219 61.3419 21.8703 54.4697 21.8703 45.9871C21.8703 45.1329 21.7723 44.2452 21.5632 43.4374C26.611 40.8568 24.7555 33.3548 19.1606 33.3548ZM8.04838 52.0981C5.11419 55.0323 -4.22516 54.9858 -7.04839 52.0981C-7.40194 51.7445 -8.03161 51.7445 -8.38774 52.0981C-8.79032 52.5006 -8.79032 53.1303 -8.38774 53.4864C-4.71032 57.1639 5.69226 57.1639 9.38774 53.4864C9.79032 53.1303 9.79032 52.5032 9.38774 52.0981C9.03161 51.7445 8.40451 51.7445 8.04838 52.0981ZM9.28968 40C7.09613 40 5.32064 41.791 5.32064 44.0155C5.32064 46.209 7.11161 47.9845 9.28968 47.9845C11.5168 47.9845 13.3052 46.1935 13.3052 44.0155C13.3052 41.791 11.5297 40 9.28968 40Z" fill="black"/>
</svg>
