<svg width="80" height="80" viewBox="0 0 80 80" fill="none" xmlns="http://www.w3.org/2000/svg">
<path d="M31.2103 47.9845C28.9832 47.9845 27.1948 46.1935 27.1948 44.0155C27.1948 41.791 28.9858 40 31.2103 40C33.4039 40 35.1794 41.791 35.1794 44.0155C35.1794 46.209 33.3884 47.9845 31.2103 47.9845ZM80 40C80 62.0981 62.0955 80 40 80C17.9045 80 0 62.0955 0 40C0 17.9019 17.9045 0 40 0C62.0955 0 80 17.9045 80 40ZM58.6606 33.3548C57.1458 33.3548 55.8064 33.9845 54.8206 34.9677C51.2077 32.4671 46.3381 30.8542 40.9342 30.6761L43.7394 18.0465L52.6761 20.0619C52.6761 22.2555 54.4671 24.031 56.6426 24.031C58.8697 24.031 60.6581 22.209 60.6581 20.0155C60.6581 17.8219 58.8671 16 56.6426 16C55.0787 16 53.7394 16.9368 53.0787 18.2271L43.2077 16.0335C42.7226 15.9045 42.2245 16.2606 42.0955 16.7432L39.0142 30.6787C33.6594 30.9058 28.8361 32.5006 25.2232 35.0013C24.24 33.969 22.8516 33.3574 21.3368 33.3574C15.7084 33.3574 13.8684 40.9213 19.0142 43.4865C18.8361 44.2942 18.7406 45.1303 18.7406 45.9871C18.7406 54.4697 28.289 61.3419 40.031 61.3419C51.8219 61.3419 61.3703 54.4697 61.3703 45.9871C61.3703 45.1329 61.2723 44.2452 61.0632 43.4374C66.111 40.8568 64.2555 33.3548 58.6606 33.3548ZM47.5484 52.0981C44.6142 55.0323 35.2748 54.9858 32.4516 52.0981C32.0981 51.7445 31.4684 51.7445 31.1123 52.0981C30.7097 52.5006 30.7097 53.1303 31.1123 53.4865C34.7897 57.1639 45.1923 57.1639 48.8877 53.4865C49.2903 53.1303 49.2903 52.5032 48.8877 52.0981C48.5316 51.7445 47.9045 51.7445 47.5484 52.0981ZM48.7897 40C46.5961 40 44.8206 41.791 44.8206 44.0155C44.8206 46.209 46.6116 47.9845 48.7897 47.9845C51.0168 47.9845 52.8052 46.1935 52.8052 44.0155C52.8052 41.791 51.0297 40 48.7897 40Z" fill="white"/>
</svg>
