<svg width="80" height="61" viewBox="0 0 80 61" fill="none" xmlns="http://www.w3.org/2000/svg">
<path d="M67.7642 5.07648C62.5066 2.6761 56.9592 0.969631 51.2615 0C50.484 1.39506 49.7787 2.82912 49.1482 4.29651C43.0773 3.37971 36.9031 3.37971 30.8322 4.29651C30.2007 2.82905 29.4942 1.39499 28.7156 0C23.0127 0.972768 17.4607 2.68375 12.1995 5.08981C1.75658 20.5426 -1.07666 35.612 0.33996 50.4681C6.45837 54.9857 13.3047 58.4229 20.5826 60.6311C22.2214 58.4268 23.6721 56.0887 24.9191 53.6413C22.5529 52.7558 20.2688 51.665 18.0927 50.3814C18.666 49.9615 19.2237 49.5415 19.7659 49.1215C26.0968 52.0977 33.0063 53.6407 40.0019 53.6407C46.9975 53.6407 53.9069 52.0977 60.2378 49.1215C60.7867 49.5704 61.3445 49.9903 61.9111 50.3814C59.731 51.668 57.4423 52.761 55.0714 53.648C56.3159 56.0946 57.7667 58.4307 59.4079 60.6311C66.6912 58.4322 73.542 54.9966 79.6605 50.4748C81.3204 33.2487 76.8206 18.316 67.7642 5.07648ZM26.709 41.3318C22.7658 41.3318 19.5059 37.7519 19.5059 33.3487C19.5059 28.9456 22.6525 25.3324 26.699 25.3324C30.7456 25.3324 33.9754 28.9422 33.9088 33.3487C33.8421 37.7552 30.7322 41.3318 26.709 41.3318ZM53.2881 41.3318C49.3349 41.3318 46.0883 37.7519 46.0883 33.3487C46.0883 28.9456 49.2349 25.3324 53.2881 25.3324C57.3413 25.3324 60.5478 28.9422 60.4778 33.3487C60.4078 37.7552 57.3079 41.3318 53.2848 41.3318" fill="white"/>
</svg>
