<svg width="24" height="24" viewBox="0 0 24 24" fill="none" xmlns="http://www.w3.org/2000/svg">
<path d="M24 5.45709V19.3661C24 20.2701 23.268 21.0021 22.364 21.0021H18.545V11.7301L12 16.6401L5.455 11.7301V21.0031H1.636C1.42107 21.0031 1.20825 20.9607 1.0097 20.8785C0.811145 20.7962 0.63075 20.6756 0.47882 20.5236C0.32689 20.3715 0.206404 20.1911 0.124246 19.9925C0.0420884 19.7939 -0.000131068 19.581 3.05652e-07 19.3661V5.45709C3.05652e-07 3.43409 2.309 2.27909 3.927 3.49309L5.455 4.64009L12 9.54809L18.545 4.63809L20.073 3.49309C21.69 2.28009 24 3.43409 24 5.45709Z" fill="white"/>
</svg>
