<svg width="24" height="24" viewBox="0 0 24 24" fill="none" xmlns="http://www.w3.org/2000/svg">
<path d="M15.8512 8.981H11.2632V0H15.8512C18.3272 0 20.3412 2.014 20.3412 4.49C20.3412 6.966 18.3272 8.981 15.8512 8.981ZM12.7342 7.51H15.8512C17.5162 7.51 18.8703 6.155 18.8703 4.491C18.8703 2.827 17.5152 1.472 15.8512 1.472H12.7342V7.51ZM12.7342 8.981H8.14725C5.67125 8.981 3.65725 6.967 3.65725 4.491C3.65725 2.015 5.67125 0 8.14725 0H12.7353V8.981H12.7342ZM8.14725 1.471C6.48225 1.471 5.12825 2.826 5.12825 4.49C5.12825 6.154 6.48225 7.51 8.14725 7.51H11.2643V1.471H8.14725ZM12.7342 16.49H8.14725C5.67125 16.49 3.65725 14.476 3.65725 12C3.65725 9.524 5.67125 7.51 8.14725 7.51H12.7353V16.49H12.7342ZM8.14725 8.981C6.48225 8.981 5.12825 10.336 5.12825 12C5.12825 13.664 6.48325 15.019 8.14725 15.019H11.2643V8.981H8.14725ZM8.17125 24C5.68225 24 3.65625 21.986 3.65625 19.51C3.65625 17.034 5.67025 15.02 8.14625 15.02H12.7342V19.461C12.7342 21.964 10.6872 24 8.17125 24ZM8.14725 16.49C7.34689 16.4911 6.57961 16.8095 6.01366 17.3754C5.44772 17.9414 5.12931 18.7086 5.12825 19.509C5.12825 21.174 6.49325 22.528 8.17225 22.528C9.87725 22.528 11.2652 21.152 11.2652 19.46V16.49H8.14725ZM15.8512 16.49H15.7533C13.2773 16.49 11.2632 14.476 11.2632 12C11.2632 9.524 13.2773 7.51 15.7533 7.51H15.8512C18.3272 7.51 20.3412 9.524 20.3412 12C20.3412 14.476 18.3272 16.49 15.8512 16.49ZM15.7542 8.981C14.0892 8.981 12.7353 10.336 12.7353 12C12.7353 13.664 14.0902 15.019 15.7542 15.019H15.8522C17.5172 15.019 18.8713 13.664 18.8713 12C18.8713 10.336 17.5152 8.981 15.8512 8.981H15.7542Z" fill="white"/>
</svg>
