<svg width="62" height="93" viewBox="0 0 62 93" fill="none" xmlns="http://www.w3.org/2000/svg">
<g clip-path="url(#clip0_70_152)">
<path d="M15.5 93C24.056 93 31 86.056 31 77.5V62H15.5C6.944 62 0 68.944 0 77.5C0 86.056 6.944 93 15.5 93Z" fill="#0ACF83"/>
<path d="M0 46.5C0 37.944 6.944 31 15.5 31H31V62H15.5C6.944 62 0 55.056 0 46.5Z" fill="#A259FF"/>
<path d="M0 15.5C0 6.944 6.944 0 15.5 0H31V31H15.5C6.944 31 0 24.056 0 15.5Z" fill="#F24E1E"/>
<path d="M31 0H46.5C55.056 0 62 6.944 62 15.5C62 24.056 55.056 31 46.5 31H31V0Z" fill="#FF7262"/>
<path d="M62 46.5C62 55.056 55.056 62 46.5 62C37.944 62 31 55.056 31 46.5C31 37.944 37.944 31 46.5 31C55.056 31 62 37.944 62 46.5Z" fill="#1ABCFE"/>
</g>
<defs>
<clipPath id="clip0_70_152">
<rect width="62" height="93" fill="white"/>
</clipPath>
</defs>
</svg>
