<svg width="85" height="80" viewBox="0 0 85 80" fill="none" xmlns="http://www.w3.org/2000/svg">
<path d="M28.329 64.4159C28.329 64.7467 27.9363 65.0114 27.4411 65.0114C26.8776 65.061 26.4848 64.7964 26.4848 64.4159C26.4848 64.085 26.8776 63.8204 27.3728 63.8204C27.8851 63.7707 28.329 64.0354 28.329 64.4159ZM23.0184 63.6715C22.8989 64.0023 23.2404 64.3828 23.7527 64.482C24.1966 64.6475 24.7089 64.482 24.8114 64.1512C24.9138 63.8204 24.5894 63.4399 24.0771 63.291C23.6331 63.1752 23.1379 63.3406 23.0184 63.6715ZM30.566 63.3903C30.0708 63.5061 29.7293 63.8204 29.7805 64.2008C29.8317 64.5317 30.2757 64.7467 30.788 64.6309C31.2832 64.5151 31.6247 64.2008 31.5735 63.87C31.5222 63.5557 31.0612 63.3406 30.566 63.3903ZM41.802 0C18.1176 0 0 17.4191 0 40.3633C0 58.7088 11.919 74.4075 28.9438 79.9326C31.1295 80.3131 31.8979 79.0062 31.8979 77.931C31.8979 76.9053 31.8467 71.2479 31.8467 67.774C31.8467 67.774 19.8935 70.2553 17.3833 62.8444C17.3833 62.8444 15.4367 58.0305 12.6362 56.7899C12.6362 56.7899 8.72582 54.1927 12.9094 54.2423C12.9094 54.2423 17.1613 54.5732 19.5008 58.5103C23.2404 64.8956 29.5073 63.0594 31.9491 61.9676C32.3419 59.3208 33.4518 57.4846 34.6813 56.3928C25.1358 55.3672 15.505 54.0273 15.505 38.1136C15.505 33.5644 16.8028 31.2816 19.5349 28.3701C19.0909 27.2949 17.6395 22.8615 19.9789 17.1379C23.5478 16.0626 31.7613 21.6043 31.7613 21.6043C35.1765 20.6779 38.8478 20.1982 42.485 20.1982C46.1222 20.1982 49.7935 20.6779 53.2087 21.6043C53.2087 21.6043 61.4223 16.0461 64.9911 17.1379C67.3305 22.8781 65.8791 27.2949 65.4351 28.3701C68.1673 31.2981 69.8407 33.581 69.8407 38.1136C69.8407 54.0769 59.783 55.3507 50.2375 56.3928C51.8085 57.6997 53.1404 60.181 53.1404 64.0685C53.1404 69.6433 53.0892 76.5414 53.0892 77.8979C53.0892 78.9731 53.8747 80.28 56.0433 79.8995C73.1193 74.4075 84.6968 58.7088 84.6968 40.3633C84.6968 17.4191 65.4863 0 41.802 0ZM16.5978 57.0545C16.3759 57.22 16.4271 57.6004 16.7174 57.9147C16.9906 58.1794 17.3833 58.2952 17.6053 58.0802C17.8273 57.9147 17.7761 57.5343 17.4858 57.22C17.2126 56.9553 16.8198 56.8395 16.5978 57.0545ZM14.7536 55.7146C14.6341 55.9297 14.8049 56.1943 15.1464 56.3598C15.4196 56.5252 15.7611 56.4756 15.8806 56.244C16.0002 56.0289 15.8294 55.7642 15.4879 55.5988C15.1464 55.4996 14.8732 55.5492 14.7536 55.7146ZM20.2862 61.6037C20.013 61.8187 20.1155 62.315 20.5082 62.6293C20.901 63.0098 21.3962 63.0594 21.6182 62.7947C21.8402 62.5797 21.7377 62.0834 21.3962 61.7691C21.0205 61.3886 20.5082 61.339 20.2862 61.6037ZM18.3396 59.172C18.0664 59.3374 18.0664 59.7675 18.3396 60.148C18.6128 60.5284 19.0739 60.6939 19.2958 60.5284C19.5691 60.3134 19.5691 59.8833 19.2958 59.5028C19.0568 59.1223 18.6128 58.9569 18.3396 59.172Z" fill="white"/>
</svg>
