<svg width="58" height="80" viewBox="0 0 58 80" fill="none" xmlns="http://www.w3.org/2000/svg">
<path d="M1.48064 64.4159C1.48064 64.7467 1.08789 65.0114 0.592689 65.0114C0.0291818 65.061 -0.363564 64.7964 -0.363564 64.4159C-0.363564 64.085 0.0291828 63.8204 0.524386 63.8204C1.03666 63.7707 1.48064 64.0354 1.48064 64.4159ZM-3.82999 63.6715C-3.94952 64.0023 -3.608 64.3828 -3.09572 64.482C-2.65174 64.6475 -2.13946 64.482 -2.03701 64.1512C-1.93455 63.8204 -2.259 63.4399 -2.77128 63.291C-3.21525 63.1752 -3.71045 63.3406 -3.82999 63.6715ZM3.71759 63.3903C3.22239 63.5061 2.88087 63.8204 2.9321 64.2008C2.98332 64.5317 3.4273 64.7467 3.93958 64.6309C4.43478 64.5151 4.7763 64.2008 4.72507 63.87C4.67384 63.5557 4.21279 63.3406 3.71759 63.3903ZM14.9536 0C-8.73079 0 -26.8484 17.4191 -26.8484 40.3633C-26.8484 58.7088 -14.9294 74.4075 2.09537 79.9326C4.2811 80.3131 5.04952 79.0062 5.04952 77.931C5.04952 76.9054 4.99829 71.2479 4.99829 67.774C4.99829 67.774 -6.95489 70.2553 -9.46505 62.8444C-9.46505 62.8444 -11.4117 58.0305 -14.2122 56.7899C-14.2122 56.7899 -18.1226 54.1927 -13.939 54.2423C-13.939 54.2423 -9.68704 54.5732 -7.34764 58.5103C-3.608 64.8956 2.65888 63.0594 5.10075 61.9676C5.49349 59.3208 6.60343 57.4846 7.8329 56.3928C-1.71257 55.3672 -11.3434 54.0273 -11.3434 38.1136C-11.3434 33.5644 -10.0456 31.2816 -7.31348 28.3701C-7.75746 27.2949 -9.20892 22.8615 -6.86951 17.1379C-3.30063 16.0626 4.91291 21.6043 4.91291 21.6043C8.3281 20.6779 11.9994 20.1982 15.6366 20.1982C19.2738 20.1982 22.9451 20.6779 26.3603 21.6043C26.3603 21.6043 34.5739 16.0461 38.1427 17.1379C40.4821 22.8781 39.0307 27.2949 38.5867 28.3701C41.3189 31.2981 42.9923 33.581 42.9923 38.1136C42.9923 54.0769 32.9346 55.3507 23.3891 56.3928C24.9601 57.6997 26.292 60.181 26.292 64.0685C26.292 69.6433 26.2408 76.5414 26.2408 77.8979C26.2408 78.9731 27.0263 80.28 29.1949 79.8995C46.2709 74.4075 57.8484 58.7088 57.8484 40.3633C57.8484 17.4191 38.6379 0 14.9536 0ZM-10.2505 57.0545C-10.4725 57.22 -10.4213 57.6004 -10.131 57.9147C-9.8578 58.1794 -9.46506 58.2952 -9.24307 58.0802C-9.02108 57.9147 -9.07231 57.5343 -9.3626 57.22C-9.63581 56.9553 -10.0286 56.8395 -10.2505 57.0545ZM-12.0948 55.7146C-12.2143 55.9297 -12.0435 56.1943 -11.702 56.3598C-11.4288 56.5252 -11.0873 56.4756 -10.9677 56.244C-10.8482 56.0289 -11.019 55.7642 -11.3605 55.5988C-11.702 55.4996 -11.9752 55.5492 -12.0948 55.7146ZM-6.56214 61.6037C-6.83536 61.8187 -6.7329 62.315 -6.34015 62.6293C-5.94741 63.0098 -5.4522 63.0594 -5.23022 62.7947C-5.00823 62.5797 -5.11068 62.0834 -5.4522 61.7691C-5.82787 61.3886 -6.34015 61.339 -6.56214 61.6037ZM-8.5088 59.172C-8.78202 59.3374 -8.78202 59.7675 -8.5088 60.148C-8.23559 60.5284 -7.77453 60.6939 -7.55255 60.5284C-7.27933 60.3134 -7.27933 59.8833 -7.55255 59.5028C-7.79161 59.1223 -8.23559 58.9569 -8.5088 59.172Z" fill="black"/>
</svg>
