<svg width="135" height="135" viewBox="0 0 135 135" fill="none" xmlns="http://www.w3.org/2000/svg">
<g clip-path="url(#clip0_69_104)">
<path d="M0 0H135V135H0" fill="white"/>
<path d="M20.0391 50.0977V95.1855C20.0391 100.459 22.6758 103.096 27.9492 103.096H41.6602V50.0977" fill="#4285F4"/>
<path d="M93.3398 50.0977V103.096H107.051C112.324 103.096 114.961 100.459 114.961 95.1855V50.0977" fill="#34A853"/>
<path d="M92.2852 67.2364V39.2872L99.668 33.75C105.996 29.004 114.961 34.2774 114.961 41.6602V50.0977" fill="#FBBC04"/>
<path d="M40.6055 65.6543V37.7051L67.5 58.0078L93.3398 38.4961V66.4453L67.5 85.957" fill="#EA4335"/>
<path d="M20.0391 50.0977V41.6602C20.0391 34.0137 29.0039 29.0039 35.332 33.75L41.6602 38.4961V66.4453" fill="#C5221F"/>
</g>
<defs>
<clipPath id="clip0_69_104">
<rect width="135" height="135" fill="white"/>
</clipPath>
</defs>
</svg>
