<svg width="45" height="62" viewBox="0 0 45 62" fill="none" xmlns="http://www.w3.org/2000/svg">
<path d="M32.2641 5.76095C27.0065 3.36058 21.4591 1.65411 15.7614 0.684479C14.9839 2.07954 14.2786 3.5136 13.6481 4.98098C7.57721 4.06419 1.40306 4.06419 -4.66785 4.98098C-5.29937 3.51353 -6.00583 2.07947 -6.78444 0.684479C-12.4873 1.65725 -18.0393 3.36822 -23.3005 5.77429C-33.7434 21.227 -36.5767 36.2965 -35.16 51.1526C-29.0416 55.6701 -22.1953 59.1074 -14.9175 61.3155C-13.2786 59.1113 -11.828 56.7731 -10.581 54.3258C-12.9471 53.4403 -15.2313 52.3495 -17.4074 51.0659C-16.8341 50.6459 -16.2763 50.2259 -15.7341 49.806C-9.40321 52.7821 -2.49376 54.3252 4.5018 54.3252C11.4974 54.3252 18.4068 52.7821 24.7377 49.806C25.2866 50.2548 25.8443 50.6748 26.411 51.0659C24.2309 52.3525 21.9422 53.4455 19.5712 54.3325C20.8158 56.7791 22.2666 59.1152 23.9077 61.3155C31.1911 59.1166 38.0419 55.6811 44.1603 51.1592C45.8203 33.9332 41.3204 19.0005 32.2641 5.76095ZM-8.79103 42.0163C-12.7342 42.0163 -15.9941 38.4364 -15.9941 34.0332C-15.9941 29.6301 -12.8475 26.0169 -8.80103 26.0169C-4.75452 26.0169 -1.52464 29.6267 -1.5913 34.0332C-1.65797 38.4397 -4.76785 42.0163 -8.79103 42.0163ZM17.788 42.0163C13.8348 42.0163 10.5882 38.4364 10.5882 34.0332C10.5882 29.6301 13.7348 26.0169 17.788 26.0169C21.8412 26.0169 25.0477 29.6267 24.9777 34.0332C24.9077 38.4397 21.8078 42.0163 17.7846 42.0163" fill="black"/>
</svg>
