<svg width="72" height="98" viewBox="0 0 72 98" fill="none" xmlns="http://www.w3.org/2000/svg">
<path d="M22.1615 5.69724H7.57815C3.7104 5.69724 0.00107741 7.23369 -2.73383 9.96859C-5.46873 12.7035 -7.00519 16.4128 -7.00519 20.2806C-7.00519 24.1483 -5.46873 27.8576 -2.73383 30.5925C0.00107741 33.3274 3.7104 34.8639 7.57815 34.8639M22.1615 5.69724V34.8639M22.1615 5.69724H36.7448C38.6599 5.69724 40.5563 6.07444 42.3256 6.80732C44.095 7.54021 45.7026 8.61441 47.0568 9.96859C48.411 11.3228 49.4852 12.9304 50.2181 14.6998C50.951 16.4691 51.3282 18.3655 51.3282 20.2806C51.3282 22.1957 50.951 24.092 50.2181 25.8614C49.4852 27.6307 48.411 29.2384 47.0568 30.5925C45.7026 31.9467 44.095 33.0209 42.3256 33.7538C40.5563 34.4867 38.6599 34.8639 36.7448 34.8639M22.1615 34.8639H7.57815M22.1615 34.8639H36.7448M22.1615 34.8639V64.0305M7.57815 34.8639C3.7104 34.8639 0.00107741 36.4003 -2.73383 39.1353C-5.46873 41.8702 -7.00519 45.5795 -7.00519 49.4472C-7.00519 53.315 -5.46873 57.0243 -2.73383 59.7592C0.00107741 62.4941 3.7104 64.0305 7.57815 64.0305M36.7448 34.8639C34.8297 34.8639 32.9334 35.2411 31.164 35.974C29.3947 36.7069 27.787 37.7811 26.4329 39.1353C25.0787 40.4894 24.0045 42.0971 23.2716 43.8664C22.5387 45.6358 22.1615 47.5321 22.1615 49.4472C22.1615 51.3623 22.5387 53.2587 23.2716 55.028C24.0045 56.7974 25.0787 58.405 26.4329 59.7592C27.787 61.1134 29.3947 62.1876 31.164 62.9205C32.9334 63.6533 34.8297 64.0306 36.7448 64.0306C38.6599 64.0306 40.5563 63.6533 42.3256 62.9205C44.095 62.1876 45.7026 61.1134 47.0568 59.7592C48.411 58.405 49.4852 56.7974 50.2181 55.028C50.951 53.2587 51.3282 51.3623 51.3282 49.4472C51.3282 47.5321 50.951 45.6358 50.2181 43.8664C49.4852 42.0971 48.411 40.4894 47.0568 39.1353C45.7026 37.7811 44.095 36.7069 42.3256 35.974C40.5563 35.2411 38.6599 34.8639 36.7448 34.8639ZM7.57815 64.0305C3.7104 64.0305 0.00107741 65.567 -2.73383 68.3019C-5.46873 71.0368 -7.00519 74.7461 -7.00519 78.6139C-7.00519 82.4816 -5.46873 86.191 -2.73383 88.9259C0.00107741 91.6608 3.7104 93.1972 7.57815 93.1972C11.4459 93.1972 15.1552 91.6608 17.8901 88.9259C20.625 86.191 22.1615 82.4816 22.1615 78.6139V64.0305M7.57815 64.0305H22.1615" stroke="black" stroke-width="7" stroke-linecap="round" stroke-linejoin="round"/>
</svg>
